PathFileType	4	(X/Y/Z)	 s01c0402.trc
DataRate	CameraRate	NumFrames	NumMarkers	Units	OrigDataRate	OrigDataStartFrame	OrigNumFrames
200	200	4	48	mm	200	1501	2000
Frame#	Time	racr			lacr			c7			jug			rlel			rdr			llel			ldr			s2			lic			ric			lasi			rasi			rpsi			lpsi			rgt			lgt			rth1			rth2			rth3			rth4			rlfc			rsh1			rsh2			rsh3			rsh4			rlmal			rmmal			rcal			rtoe			rmt5			lth1			lth2			lth4			lth3			llfc			lsh1			lsh2			lsh3			lsh4			llmal			lmmal			lcal			ltoe			lmt5			SBIKE			LBIKE			RBIKE			
		X1	Y1	Z1	X2	Y2	Z2	X3	Y3	Z3	X4	Y4	Z4	X5	Y5	Z5	X6	Y6	Z6	X7	Y7	Z7	X8	Y8	Z8	X9	Y9	Z9	X10	Y10	Z10	X11	Y11	Z11	X12	Y12	Z12	X13	Y13	Z13	X14	Y14	Z14	X15	Y15	Z15	X16	Y16	Z16	X17	Y17	Z17	X18	Y18	Z18	X19	Y19	Z19	X20	Y20	Z20	X21	Y21	Z21	X22	Y22	Z22	X23	Y23	Z23	X24	Y24	Z24	X25	Y25	Z25	X26	Y26	Z26	X27	Y27	Z27	X28	Y28	Z28	X29	Y29	Z29	X30	Y30	Z30	X31	Y31	Z31	X32	Y32	Z32	X33	Y33	Z33	X34	Y34	Z34	X35	Y35	Z35	X36	Y36	Z36	X37	Y37	Z37	X38	Y38	Z38	X39	Y39	Z39	X40	Y40	Z40	X41	Y41	Z41	X42	Y42	Z42	X43	Y43	Z43	X44	Y44	Z44	X45	Y45	Z45	X46	Y46	Z46	X47	Y47	Z47	X48	Y48	Z48	
1501	7.5050	730.946428	1279.218757	-108.772724	737.053856	1222.150512	-483.128971	740.576253	1374.471223	-303.298227	708.188346	1210.065227	-286.689717	572.760162	1077.576565	44.013993	702.620637	889.949436	-27.000378	536.208848	1022.983081	-586.962052	682.222162	885.429744	-459.266839	196.197156	1222.562575	-256.702430	349.620280	1208.432963	-448.661434	360.955293	1210.910968	-114.450445	352.392638	1153.312768	-415.989199	378.778546	1158.538630	-140.432311	230.891619	1259.746184	-208.799496	223.930971	1260.278440	-314.460820	302.184266	1096.588935	-76.649792	292.394814	1078.268599	-453.226636	381.430353	989.172274	-67.255282	433.175474	923.870210	-71.381499	483.479985	849.532581	-81.934807	474.588835	954.848129	-93.087993	503.501113	743.597275	-104.601224	401.547199	684.396345	-70.596603	336.751354	630.288038	-73.988410	263.759032	579.668518	-80.695948	367.983653	590.715480	-107.437769	163.979834	524.943657	-94.444243	202.555763	467.993724	-121.224971	135.215182	554.774600	-152.598932	168.274783	285.080530	-136.507990	119.222831	381.959649	-69.447752	346.064616	959.318134	-450.708803	404.701034	901.903537	-447.881126	449.031014	938.071844	-440.344708	466.870710	836.515138	-425.577541	519.262471	730.299973	-403.999384	441.149845	648.252236	-438.762283	406.659197	568.472983	-434.975834	370.649000	491.343865	-424.611328	458.864398	548.226920	-408.673055	314.137440	376.940071	-414.523310	349.181617	382.108920	-333.494269	251.864374	360.272064	-375.283772	512.028279	252.066491	-370.598831	408.742419	261.373679	-441.195926	-223.761506	893.268056	-253.244408	-12.535732	84.552695	-456.159449	-21.571201	81.150240	-56.055263	
1502	7.5100	730.930994	1279.726416	-106.970014	737.890664	1221.972770	-481.407178	740.767691	1374.594421	-301.605061	708.973787	1210.188961	-285.034231	572.878857	1077.410019	44.893306	702.469032	889.880607	-27.199312	536.409779	1023.733952	-586.001014	682.133329	885.461153	-458.820401	196.168760	1220.980769	-257.497685	349.820963	1206.152251	-448.656623	360.491328	1210.747016	-114.840139	352.744131	1151.550368	-416.404268	378.402432	1158.373821	-140.761834	230.315206	1258.801626	-209.825859	223.979539	1258.629975	-315.483842	302.299960	1097.136318	-76.537709	291.095140	1075.036706	-452.886440	384.153572	991.662310	-66.495247	438.083271	927.871662	-70.352592	490.697452	855.013047	-81.639053	478.595387	959.783702	-93.224625	512.137015	749.575971	-103.635624	408.624842	690.649315	-69.484283	343.054692	637.458279	-73.268693	269.492033	587.785148	-80.661236	373.363651	597.605023	-107.168473	168.384708	534.674519	-94.210703	206.961278	477.977790	-121.224678	139.188867	564.744695	-152.526873	173.084125	295.223010	-136.463264	123.757815	391.925732	-69.370880	341.971783	954.923509	-450.029092	400.077007	897.145466	-447.385195	444.367574	931.161384	-440.243558	459.623267	829.277512	-424.589027	510.980850	723.067238	-403.982164	433.919043	640.224839	-439.277215	400.422818	560.193290	-435.134265	365.372182	482.689494	-424.724553	452.789805	540.675077	-408.703611	309.881275	367.412364	-414.263546	347.394307	374.722979	-334.784285	248.140946	351.628606	-375.426638	507.271308	240.823266	-370.026607	404.486452	251.466279	-441.165474	-223.752390	893.247221	-253.184836	-12.517861	84.538794	-456.154876	-21.574861	81.112467	-56.044362	
1503	7.5150	730.931344	1280.265743	-104.850282	738.703642	1221.881662	-479.652711	740.897371	1374.759787	-299.745353	709.814494	1210.375381	-283.282162	572.834281	1077.099451	45.741203	702.351044	889.796490	-27.543102	536.653959	1024.786513	-585.169153	682.066144	885.469075	-458.351347	195.930691	1219.634912	-258.563143	350.026115	1203.762678	-448.776753	359.945145	1210.687779	-115.286212	353.138078	1149.798741	-416.820811	378.038414	1158.328474	-141.075735	229.774300	1257.844533	-210.921355	224.064311	1256.898661	-316.550897	302.437599	1097.688932	-76.365757	289.547278	1071.852780	-452.447045	387.097095	994.498363	-65.792660	442.952441	932.291041	-69.343982	497.637879	860.900814	-80.737920	482.365440	965.166838	-93.003615	520.342240	755.554237	-102.573275	415.645011	697.096442	-68.416911	349.414889	644.847557	-72.415588	275.092309	596.413731	-80.247897	378.980002	605.140332	-106.562841	172.373878	544.891814	-94.216358	211.536151	488.111827	-121.424603	143.063660	574.741608	-152.496928	178.951517	305.514959	-136.470114	128.907197	401.873076	-69.282490	337.607451	950.735795	-449.332650	395.277903	892.523214	-446.982004	439.328672	924.288754	-440.665115	452.028776	822.181489	-423.728008	502.544135	716.042386	-403.811289	426.553858	632.329107	-439.936702	394.050468	551.922737	-435.383052	359.754988	474.024464	-424.947594	446.383413	533.076957	-408.636390	305.215572	358.419186	-414.311365	344.543694	367.458602	-336.003748	243.964691	343.385510	-375.562848	502.282723	230.313035	-369.877458	399.632902	241.732499	-441.100707	-223.741183	893.238616	-253.144785	-12.524000	84.535378	-456.145618	-21.571273	81.117757	-56.025802	
1504	7.5200	730.788642	1281.115296	-102.728808	739.502559	1221.941349	-477.843146	741.064697	1374.996552	-297.749246	710.634142	1210.834239	-281.310149	572.566197	1076.700429	46.668060	702.191246	889.712151	-27.926183	537.103267	1025.787657	-584.244477	681.984450	885.535579	-457.881371	195.677373	1218.364924	-259.823266	350.258797	1201.594613	-448.882548	359.472781	1210.640343	-115.572823	353.534850	1148.051817	-417.155268	377.698247	1158.231472	-141.214232	229.280344	1256.901581	-212.104096	224.211197	1255.260125	-317.678754	302.550277	1098.345431	-76.241404	288.025062	1068.902688	-452.013275	389.966928	997.700533	-65.047387	447.657065	936.948807	-68.301988	504.253679	867.117753	-79.540964	485.938121	970.761491	-92.476067	527.926303	761.517579	-101.305472	422.841905	703.669602	-67.190295	355.827897	652.440607	-71.508375	280.695397	605.326040	-79.745621	384.653484	612.669182	-106.145699	176.606106	555.224321	-94.240488	216.344170	498.287509	-121.842132	146.657916	584.569642	-152.238044	185.699897	315.854891	-136.403185	134.485689	411.578266	-69.271055	333.139332	946.850373	-448.812338	390.335800	888.074120	-446.677579	434.145274	917.661155	-440.997078	444.124900	815.368558	-423.000346	493.858052	709.090265	-403.846052	419.290318	624.599047	-440.785146	387.334151	543.665858	-435.731632	353.829858	465.466277	-425.256423	439.670768	525.463268	-408.471375	300.264184	349.787458	-414.438228	340.710127	360.347170	-337.152440	239.338147	335.564567	-375.692236	496.655047	220.115865	-369.645816	394.197581	232.385655	-441.086679	-223.750324	893.251697	-253.146179	-12.528062	84.554412	-456.098868	-21.552601	81.094124	-55.996398	
